REM DIRINDEX 1\2,1\3,1\4
REM DIRNAME folder01,folder02,folder03,folder04
TITLE ""
FILE "179 179_TOEFL_3900.mp3" MP3
  TRACK 01 AUDIO
    TITLE "2:cjc151_7809"
    INDEX 01 00:00:00
  TRACK 02 AUDIO
    TITLE "0:"
    INDEX 01 00:01:24
  TRACK 03 AUDIO
    TITLE "3:cjc151_7810"
    INDEX 01 00:03:04
  TRACK 04 AUDIO
    TITLE "0:"
    INDEX 01 00:07:64
  TRACK 05 AUDIO
    TITLE "2:cjc151_7811"
    INDEX 01 00:09:47
  TRACK 06 AUDIO
    TITLE "0:"
    INDEX 01 00:11:05
  TRACK 07 AUDIO
    TITLE "3:cjc151_7812"
    INDEX 01 00:12:60
  TRACK 08 AUDIO
    TITLE "0:"
    INDEX 01 00:16:67
  TRACK 09 AUDIO
    TITLE "2:cjc151_7813"
    INDEX 01 00:18:44
  TRACK 10 AUDIO
    TITLE "0:"
    INDEX 01 00:20:06
  TRACK 11 AUDIO
    TITLE "3:cjc151_7814"
    INDEX 01 00:21:60
  TRACK 12 AUDIO
    TITLE "0:"
    INDEX 01 00:25:58
  TRACK 13 AUDIO
    TITLE "2:cjc151_7815"
    INDEX 01 00:27:39
  TRACK 14 AUDIO
    TITLE "0:"
    INDEX 01 00:29:25
  TRACK 15 AUDIO
    TITLE "3:cjc151_7816"
    INDEX 01 00:31:06
  TRACK 16 AUDIO
    TITLE "0:"
    INDEX 01 00:35:21
  TRACK 17 AUDIO
    TITLE "2:cjc151_7817"
    INDEX 01 00:37:01
  TRACK 18 AUDIO
    TITLE "0:"
    INDEX 01 00:38:18
  TRACK 19 AUDIO
    TITLE "3:cjc151_7818"
    INDEX 01 00:40:03
  TRACK 20 AUDIO
    TITLE "0:"
    INDEX 01 00:45:00
  TRACK 21 AUDIO
    TITLE "2:cjc151_7819"
    INDEX 01 00:46:58
  TRACK 22 AUDIO
    TITLE "0:"
    INDEX 01 00:48:10
  TRACK 23 AUDIO
    TITLE "3:cjc151_7820"
    INDEX 01 00:49:65
  TRACK 24 AUDIO
    TITLE "0:"
    INDEX 01 00:55:57
  TRACK 25 AUDIO
    TITLE "2:cjc151_7821"
    INDEX 01 00:57:37
  TRACK 26 AUDIO
    TITLE "0:"
    INDEX 01 00:58:62
  TRACK 27 AUDIO
    TITLE "3:cjc151_7822"
    INDEX 01 01:00:37
  TRACK 28 AUDIO
    TITLE "0:"
    INDEX 01 01:05:56
  TRACK 29 AUDIO
    TITLE "2:cjc151_7823"
    INDEX 01 01:07:37
  TRACK 30 AUDIO
    TITLE "0:"
    INDEX 01 01:08:58
  TRACK 31 AUDIO
    TITLE "3:cjc151_7824"
    INDEX 01 01:10:33
  TRACK 32 AUDIO
    TITLE "0:"
    INDEX 01 01:15:72
  TRACK 33 AUDIO
    TITLE "2:cjc151_7825"
    INDEX 01 01:17:51
  TRACK 34 AUDIO
    TITLE "0:"
    INDEX 01 01:19:13
  TRACK 35 AUDIO
    TITLE "3:cjc151_7826"
    INDEX 01 01:20:69
  TRACK 36 AUDIO
    TITLE "0:"
    INDEX 01 01:25:49
  TRACK 37 AUDIO
    TITLE "2:cjc151_7827"
    INDEX 01 01:27:28
  TRACK 38 AUDIO
    TITLE "0:"
    INDEX 01 01:28:47
  TRACK 39 AUDIO
    TITLE "3:cjc151_7828"
    INDEX 01 01:30:26
  TRACK 40 AUDIO
    TITLE "0:"
    INDEX 01 01:34:36
  TRACK 41 AUDIO
    TITLE "2:cjc151_7829"
    INDEX 01 01:36:13
  TRACK 42 AUDIO
    TITLE "0:"
    INDEX 01 01:37:58
  TRACK 43 AUDIO
    TITLE "3:cjc151_7830"
    INDEX 01 01:39:47
  TRACK 44 AUDIO
    TITLE "0:"
    INDEX 01 01:44:36
  TRACK 45 AUDIO
    TITLE "2:cjc151_7831"
    INDEX 01 01:46:18
  TRACK 46 AUDIO
    TITLE "0:"
    INDEX 01 01:48:61
  TRACK 47 AUDIO
    TITLE "3:cjc151_7832"
    INDEX 01 01:50:35
  TRACK 48 AUDIO
    TITLE "0:"
    INDEX 01 01:54:60
  TRACK 49 AUDIO
    TITLE "2:cjc151_7833"
    INDEX 01 01:56:39
  TRACK 50 AUDIO
    TITLE "0:"
    INDEX 01 01:57:58
  TRACK 51 AUDIO
    TITLE "3:cjc151_7834"
    INDEX 01 01:59:38
  TRACK 52 AUDIO
    TITLE "0:"
    INDEX 01 02:03:20
  TRACK 53 AUDIO
    TITLE "2:cjc151_7835"
    INDEX 01 02:05:05
  TRACK 54 AUDIO
    TITLE "0:"
    INDEX 01 02:06:05
  TRACK 55 AUDIO
    TITLE "3:cjc151_7836"
    INDEX 01 02:07:57
  TRACK 56 AUDIO
    TITLE "0:"
    INDEX 01 02:11:37
  TRACK 57 AUDIO
    TITLE "2:cjc151_7837"
    INDEX 01 02:13:14
  TRACK 58 AUDIO
    TITLE "0:"
    INDEX 01 02:14:51
  TRACK 59 AUDIO
    TITLE "3:cjc151_7838"
    INDEX 01 02:16:26
  TRACK 60 AUDIO
    TITLE "0:"
    INDEX 01 02:20:09
  TRACK 61 AUDIO
    TITLE "2:cjc151_7839"
    INDEX 01 02:21:59
  TRACK 62 AUDIO
    TITLE "0:"
    INDEX 01 02:22:66
  TRACK 63 AUDIO
    TITLE "3:cjc151_7840"
    INDEX 01 02:24:51
  TRACK 64 AUDIO
    TITLE "0:"
    INDEX 01 02:30:19
